<svg width="1400" height="600" viewBox="0 0 1400 600" fill="none" xmlns="http://www.w3.org/2000/svg">
<circle cx="299" cy="280" r="32" fill="black"/>
<rect x="160.407" y="158.378" width="24" height="144" rx="12" transform="rotate(-45 160.407 158.378)" fill="black"/>
<rect x="291" y="64" width="16" height="48" rx="8" fill="black"/>
<rect x="307" y="496" width="16" height="48" rx="8" transform="rotate(-180 307 496)" fill="black"/>
<rect x="83.0001" y="288" width="16" height="48" rx="8" transform="rotate(-90 83.0001 288)" fill="black"/>
<rect x="515" y="272" width="16" height="48" rx="8" transform="rotate(90 515 272)" fill="black"/>
<circle cx="299" cy="280" r="240" transform="rotate(-90 299 280)" stroke="black" stroke-width="32"/>
<rect x="406.48" y="149.892" width="32" height="128" rx="16" transform="rotate(45 406.48 149.892)" fill="black"/>
<path d="M776.909 34.8182V221H742.909L661.909 103.818H660.546V221H621.182V34.8182H655.727L736.091 151.909H737.727V34.8182H776.909ZM809.432 221V34.8182H932.705V67.2727H848.796V111.636H924.523V144.091H848.796V221H809.432ZM959.182 221V34.8182H998.546V188.545H1078.36V221H959.182Z" fill="black"/>
<path d="M759.439 327.797H726.465C725.862 323.531 724.633 319.741 722.776 316.429C720.919 313.066 718.535 310.205 715.624 307.847C712.713 305.488 709.35 303.681 705.536 302.426C701.771 301.171 697.681 300.544 693.264 300.544C685.284 300.544 678.333 302.527 672.411 306.491C666.488 310.406 661.896 316.128 658.634 323.656C655.371 331.134 653.74 340.219 653.74 350.909C653.74 361.901 655.371 371.135 658.634 378.614C661.946 386.092 666.564 391.738 672.486 395.553C678.408 399.367 685.259 401.274 693.038 401.274C697.405 401.274 701.445 400.697 705.159 399.543C708.923 398.388 712.261 396.707 715.172 394.499C718.083 392.24 720.492 389.505 722.399 386.293C724.357 383.08 725.712 379.417 726.465 375.301L759.439 375.452C758.586 382.528 756.453 389.354 753.04 395.929C749.677 402.454 745.135 408.301 739.413 413.47C733.742 418.589 726.967 422.655 719.087 425.666C711.257 428.627 702.399 430.108 692.511 430.108C678.76 430.108 666.463 426.996 655.622 420.773C644.832 414.549 636.299 405.54 630.026 393.746C623.802 381.951 620.69 367.672 620.69 350.909C620.69 334.096 623.852 319.792 630.176 307.997C636.5 296.203 645.083 287.219 655.923 281.045C666.764 274.822 678.96 271.71 692.511 271.71C701.445 271.71 709.726 272.965 717.355 275.474C725.034 277.984 731.835 281.648 737.757 286.466C743.68 291.234 748.498 297.081 752.212 304.007C755.976 310.933 758.385 318.863 759.439 327.797ZM782.815 428V273.818H815.413V401.124H881.512V428H782.815ZM1038.78 350.909C1038.78 367.723 1035.59 382.027 1029.22 393.821C1022.9 405.616 1014.26 414.625 1003.32 420.848C992.431 427.021 980.185 430.108 966.583 430.108C952.882 430.108 940.585 426.996 929.694 420.773C918.803 414.549 910.195 405.54 903.872 393.746C897.548 381.951 894.386 367.672 894.386 350.909C894.386 334.096 897.548 319.792 903.872 307.997C910.195 296.203 918.803 287.219 929.694 281.045C940.585 274.822 952.882 271.71 966.583 271.71C980.185 271.71 992.431 274.822 1003.32 281.045C1014.26 287.219 1022.9 296.203 1029.22 307.997C1035.59 319.792 1038.78 334.096 1038.78 350.909ZM1005.73 350.909C1005.73 340.018 1004.1 330.833 1000.84 323.355C997.625 315.877 993.083 310.205 987.211 306.341C981.339 302.476 974.463 300.544 966.583 300.544C958.703 300.544 951.828 302.476 945.955 306.341C940.083 310.205 935.516 315.877 932.254 323.355C929.042 330.833 927.435 340.018 927.435 350.909C927.435 361.8 929.042 370.985 932.254 378.463C935.516 385.941 940.083 391.613 945.955 395.477C951.828 399.342 958.703 401.274 966.583 401.274C974.463 401.274 981.339 399.342 987.211 395.477C993.083 391.613 997.625 385.941 1000.84 378.463C1004.1 370.985 1005.73 361.8 1005.73 350.909ZM1198.97 327.797H1165.99C1165.39 323.531 1164.16 319.741 1162.3 316.429C1160.45 313.066 1158.06 310.205 1155.15 307.847C1152.24 305.488 1148.88 303.681 1145.06 302.426C1141.3 301.171 1137.21 300.544 1132.79 300.544C1124.81 300.544 1117.86 302.527 1111.94 306.491C1106.02 310.406 1101.42 316.128 1098.16 323.656C1094.9 331.134 1093.27 340.219 1093.27 350.909C1093.27 361.901 1094.9 371.135 1098.16 378.614C1101.47 386.092 1106.09 391.738 1112.01 395.553C1117.94 399.367 1124.79 401.274 1132.57 401.274C1136.93 401.274 1140.97 400.697 1144.69 399.543C1148.45 398.388 1151.79 396.707 1154.7 394.499C1157.61 392.24 1160.02 389.505 1161.93 386.293C1163.88 383.08 1165.24 379.417 1165.99 375.301L1198.97 375.452C1198.11 382.528 1195.98 389.354 1192.57 395.929C1189.2 402.454 1184.66 408.301 1178.94 413.47C1173.27 418.589 1166.49 422.655 1158.61 425.666C1150.78 428.627 1141.93 430.108 1132.04 430.108C1118.29 430.108 1105.99 426.996 1095.15 420.773C1084.36 414.549 1075.83 405.54 1069.55 393.746C1063.33 381.951 1060.22 367.672 1060.22 350.909C1060.22 334.096 1063.38 319.792 1069.7 307.997C1076.03 296.203 1084.61 287.219 1095.45 281.045C1106.29 274.822 1118.49 271.71 1132.04 271.71C1140.97 271.71 1149.25 272.965 1156.88 275.474C1164.56 277.984 1171.36 281.648 1177.28 286.466C1183.21 291.234 1188.03 297.081 1191.74 304.007C1195.5 310.933 1197.91 318.863 1198.97 327.797ZM1222.34 428V273.818H1254.94V341.8H1256.97L1312.46 273.818H1351.53L1294.31 342.854L1352.21 428H1313.21L1270.98 364.611L1254.94 384.185V428H1222.34Z" fill="black"/>
<path d="M590.402 571.514C586.558 571.514 583.258 570.155 580.502 567.438C577.784 564.681 576.425 561.381 576.425 557.537C576.425 553.732 577.784 550.471 580.502 547.753C583.258 545.035 586.558 543.676 590.402 543.676C594.129 543.676 597.391 545.035 600.186 547.753C602.982 550.471 604.379 553.732 604.379 557.537C604.379 560.099 603.719 562.448 602.399 564.584C601.118 566.68 599.429 568.369 597.333 569.651C595.236 570.893 592.926 571.514 590.402 571.514ZM665.166 571.747C656.003 571.747 648.121 569.806 641.521 565.923C634.96 562.002 629.912 556.566 626.379 549.616C622.885 542.667 621.138 534.669 621.138 525.622C621.138 516.459 622.904 508.422 626.437 501.511C630.009 494.562 635.076 489.145 641.638 485.263C648.199 481.341 656.003 479.381 665.049 479.381C672.853 479.381 679.687 480.798 685.549 483.632C691.412 486.466 696.052 490.446 699.469 495.571C702.885 500.696 704.768 506.714 705.118 513.625H681.706C681.046 509.16 679.299 505.569 676.464 502.851C673.669 500.094 670 498.716 665.457 498.716C661.613 498.716 658.255 499.764 655.382 501.861C652.548 503.919 650.335 506.928 648.743 510.888C647.151 514.848 646.355 519.643 646.355 525.273C646.355 530.98 647.131 535.833 648.684 539.832C650.276 543.831 652.509 546.879 655.382 548.976C658.255 551.072 661.613 552.121 665.457 552.121C668.291 552.121 670.835 551.538 673.086 550.374C675.377 549.209 677.26 547.52 678.736 545.307C680.25 543.055 681.24 540.357 681.706 537.212H705.118C704.729 544.045 702.866 550.063 699.527 555.266C696.227 560.429 691.665 564.467 685.841 567.379C680.017 570.291 673.125 571.747 665.166 571.747ZM761.42 571.747C752.373 571.747 744.55 569.825 737.95 565.982C731.388 562.099 726.321 556.702 722.749 549.791C719.177 542.841 717.391 534.785 717.391 525.622C717.391 516.382 719.177 508.306 722.749 501.395C726.321 494.445 731.388 489.048 737.95 485.205C744.55 481.322 752.373 479.381 761.42 479.381C770.466 479.381 778.27 481.322 784.832 485.205C791.432 489.048 796.518 494.445 800.09 501.395C803.662 508.306 805.448 516.382 805.448 525.622C805.448 534.785 803.662 542.841 800.09 549.791C796.518 556.702 791.432 562.099 784.832 565.982C778.27 569.825 770.466 571.747 761.42 571.747ZM761.536 552.528C765.652 552.528 769.088 551.364 771.845 549.034C774.601 546.666 776.678 543.443 778.076 539.366C779.513 535.29 780.231 530.65 780.231 525.447C780.231 520.245 779.513 515.605 778.076 511.528C776.678 507.452 774.601 504.229 771.845 501.861C769.088 499.492 765.652 498.308 761.536 498.308C757.382 498.308 753.888 499.492 751.053 501.861C748.258 504.229 746.142 507.452 744.705 511.528C743.308 515.605 742.609 520.245 742.609 525.447C742.609 530.65 743.308 535.29 744.705 539.366C746.142 543.443 748.258 546.666 751.053 549.034C753.888 551.364 757.382 552.528 761.536 552.528ZM821.58 570V480.545H845.225V496.328H846.274C848.137 491.087 851.243 486.952 855.592 483.923C859.94 480.895 865.143 479.381 871.2 479.381C877.334 479.381 882.556 480.914 886.866 483.982C891.176 487.01 894.049 491.125 895.485 496.328H896.417C898.242 491.203 901.542 487.107 906.318 484.04C911.132 480.934 916.82 479.381 923.382 479.381C931.729 479.381 938.504 482.04 943.707 487.359C948.948 492.64 951.569 500.133 951.569 509.839V570H926.818V514.732C926.818 509.762 925.498 506.035 922.857 503.55C920.217 501.065 916.917 499.822 912.957 499.822C908.453 499.822 904.939 501.259 902.416 504.132C899.892 506.966 898.63 510.713 898.63 515.372V570H874.578V514.207C874.578 509.82 873.316 506.326 870.792 503.724C868.307 501.123 865.026 499.822 860.95 499.822C858.193 499.822 855.708 500.521 853.495 501.919C851.321 503.278 849.593 505.2 848.312 507.685C847.031 510.131 846.39 513.004 846.39 516.304V570H821.58Z" fill="black"/>
</svg>
